<mxfile host="app.diagrams.net" modified="2021-04-25T03:41:29.877Z" agent="5.0 (Windows NT 10.0; Win64; x64) AppleWebKit/537.36 (KHTML, like Gecko) Chrome/89.0.4389.128 Safari/537.36" etag="U2ReRrqJF9D-6JW84id_" version="14.4.6" type="github">
  <diagram id="aIBNMCLB5vegAtX76ae7" name="Page-1">
    <mxGraphModel dx="2770" dy="1323" grid="1" gridSize="10" guides="1" tooltips="1" connect="1" arrows="1" fold="1" page="1" pageScale="1" pageWidth="827" pageHeight="1169" math="0" shadow="0">
      <root>
        <mxCell id="0" />
        <mxCell id="1" parent="0" />
        <mxCell id="3Hrfc6jVErraSraYbf2L-3" value="" style="rounded=1;whiteSpace=wrap;html=1;absoluteArcSize=1;arcSize=14;strokeWidth=2;" parent="1" vertex="1">
          <mxGeometry x="630" y="40" width="230" height="680" as="geometry" />
        </mxCell>
        <mxCell id="CzojHTj9ukS-7fSdfZxa-16" value="" style="rounded=0;whiteSpace=wrap;html=1;" vertex="1" parent="1">
          <mxGeometry x="638.53" y="222.5" width="210" height="323.12" as="geometry" />
        </mxCell>
        <mxCell id="CzojHTj9ukS-7fSdfZxa-7" value="" style="rounded=1;whiteSpace=wrap;html=1;" vertex="1" parent="1">
          <mxGeometry x="483.31" y="910" width="440" height="110" as="geometry" />
        </mxCell>
        <mxCell id="1z75fBFgBHhC1uhvndQV-83" value="" style="rounded=1;whiteSpace=wrap;html=1;absoluteArcSize=1;arcSize=14;strokeWidth=2;" parent="1" vertex="1">
          <mxGeometry x="329.99999999999994" y="432.5" width="230" height="287.5" as="geometry" />
        </mxCell>
        <mxCell id="qpSUApoE_brRs-mtpVLS-30" value="" style="rounded=1;whiteSpace=wrap;html=1;absoluteArcSize=1;arcSize=14;strokeWidth=2;" parent="1" vertex="1">
          <mxGeometry x="940" y="365.26" width="215" height="280" as="geometry" />
        </mxCell>
        <mxCell id="1z75fBFgBHhC1uhvndQV-82" value="" style="rounded=1;whiteSpace=wrap;html=1;absoluteArcSize=1;arcSize=14;strokeWidth=2;" parent="1" vertex="1">
          <mxGeometry x="30" y="102.5" width="246.23" height="544.92" as="geometry" />
        </mxCell>
        <mxCell id="1z75fBFgBHhC1uhvndQV-1" value="Left/RightÂ " style="shape=process;whiteSpace=wrap;align=center;verticalAlign=middle;size=0.0475;fontStyle=1;strokeWidth=3;fillColor=#FFCCCC" parent="1" vertex="1">
          <mxGeometry x="30" y="745" width="1470" height="50" as="geometry" />
        </mxCell>
        <mxCell id="1z75fBFgBHhC1uhvndQV-2" value="&lt;p style=&quot;margin: 0px ; margin-top: 4px ; text-align: center ; text-decoration: underline&quot;&gt;&lt;strong&gt;&lt;strong&gt;Task&lt;/strong&gt;&amp;nbsp;main&lt;br&gt;&lt;/strong&gt;&lt;/p&gt;&lt;hr&gt;&lt;p style=&quot;margin: 0px ; margin-left: 8px&quot;&gt;&lt;br&gt;&lt;/p&gt;" style="verticalAlign=middle;align=center;overflow=fill;fontSize=12;fontFamily=Helvetica;html=1;rounded=1;fontStyle=1;strokeWidth=3;fillColor=#E6FFCC" parent="1" vertex="1">
          <mxGeometry x="65" y="652.5" width="130" height="50" as="geometry" />
        </mxCell>
        <mxCell id="1z75fBFgBHhC1uhvndQV-80" value="" style="edgeStyle=orthogonalEdgeStyle;rounded=0;orthogonalLoop=1;jettySize=auto;html=1;" parent="1" source="1z75fBFgBHhC1uhvndQV-3" edge="1">
          <mxGeometry relative="1" as="geometry">
            <mxPoint x="147.51857142857142" y="493.86" as="targetPoint" />
          </mxGeometry>
        </mxCell>
        <mxCell id="1z75fBFgBHhC1uhvndQV-3" value="&lt;div style=&quot;color: rgb(212 , 212 , 212) ; background-color: rgb(30 , 30 , 30) ; font-family: &amp;#34;consolas&amp;#34; , &amp;#34;courier new&amp;#34; , monospace ; line-height: 19px&quot;&gt;&lt;div style=&quot;font-family: &amp;#34;consolas&amp;#34; , &amp;#34;courier new&amp;#34; , monospace ; font-size: 14px ; line-height: 19px&quot;&gt;ESP_NOW Init&lt;/div&gt;&lt;div style=&quot;font-family: &amp;#34;consolas&amp;#34; , &amp;#34;courier new&amp;#34; , monospace ; font-size: 14px ; line-height: 19px&quot;&gt;PWM_Set Init&lt;/div&gt;&lt;/div&gt;" style="rounded=1;whiteSpace=wrap;html=1;absoluteArcSize=1;arcSize=14;strokeWidth=2;" parent="1" vertex="1">
          <mxGeometry x="41.69" y="575.63" width="222.04" height="66.87" as="geometry" />
        </mxCell>
        <mxCell id="1z75fBFgBHhC1uhvndQV-7" value="&lt;p style=&quot;margin: 0px ; margin-left: 8px&quot;&gt;&lt;u&gt;ESP_NOW Receive CB&lt;/u&gt;&lt;/p&gt;" style="verticalAlign=middle;align=center;overflow=fill;fontSize=12;fontFamily=Helvetica;html=1;rounded=1;fontStyle=1;strokeWidth=3;fillColor=#E6FFCC" parent="1" vertex="1">
          <mxGeometry x="372.51000000000005" y="650" width="169.18" height="50" as="geometry" />
        </mxCell>
        <mxCell id="qpSUApoE_brRs-mtpVLS-1" value="&lt;div style=&quot;color: rgb(212 , 212 , 212) ; background-color: rgb(30 , 30 , 30) ; font-family: &amp;#34;consolas&amp;#34; , &amp;#34;courier new&amp;#34; , monospace ; font-size: 14px ; line-height: 19px&quot;&gt;Creat message_handling task&lt;/div&gt;&lt;div style=&quot;color: rgb(212 , 212 , 212) ; background-color: rgb(30 , 30 , 30) ; font-family: &amp;#34;consolas&amp;#34; , &amp;#34;courier new&amp;#34; , monospace ; font-size: 14px ; line-height: 19px&quot;&gt;Creat HMI task&lt;/div&gt;" style="rounded=1;whiteSpace=wrap;html=1;absoluteArcSize=1;arcSize=14;strokeWidth=2;" parent="1" vertex="1">
          <mxGeometry x="38.95999999999998" y="412.5" width="227.49" height="68.2" as="geometry" />
        </mxCell>
        <mxCell id="qpSUApoE_brRs-mtpVLS-29" value="&lt;p style=&quot;margin: 0px ; margin-top: 4px ; text-align: center ; text-decoration: underline&quot;&gt;&lt;strong&gt;&lt;strong&gt;Task&lt;/strong&gt;&amp;nbsp;HMI&lt;br&gt;&lt;/strong&gt;&lt;/p&gt;&lt;hr&gt;&lt;p style=&quot;margin: 0px ; margin-left: 8px&quot;&gt;&lt;br&gt;&lt;/p&gt;" style="verticalAlign=middle;align=center;overflow=fill;fontSize=12;fontFamily=Helvetica;html=1;rounded=1;fontStyle=1;strokeWidth=3;fillColor=#E6FFCC" parent="1" vertex="1">
          <mxGeometry x="970" y="672.68" width="130" height="50" as="geometry" />
        </mxCell>
        <mxCell id="qpSUApoE_brRs-mtpVLS-36" value="GPIO Init&lt;br&gt;Led_Pin: 22&lt;br&gt;" style="rounded=1;whiteSpace=wrap;html=1;absoluteArcSize=1;arcSize=14;strokeWidth=2;" parent="1" vertex="1">
          <mxGeometry x="957.5" y="592.76" width="180" height="47.5" as="geometry" />
        </mxCell>
        <mxCell id="qpSUApoE_brRs-mtpVLS-43" value="Toggle Led" style="whiteSpace=wrap;html=1;rounded=1;strokeWidth=2;arcSize=14;" parent="1" vertex="1">
          <mxGeometry x="957.5" y="539.16" width="180" height="21.02" as="geometry" />
        </mxCell>
        <mxCell id="qpSUApoE_brRs-mtpVLS-44" value="vtaskdelay(1000 / (1+eCO2_Alarm *2)ms)" style="whiteSpace=wrap;html=1;rounded=1;strokeWidth=2;arcSize=14;" parent="1" vertex="1">
          <mxGeometry x="957.5" y="466" width="180" height="53.12" as="geometry" />
        </mxCell>
        <mxCell id="pYE9BElWbnLyJK9MFPdy-1" value="&lt;div style=&quot;font-family: &amp;#34;consolas&amp;#34; , &amp;#34;courier new&amp;#34; , monospace ; font-size: 14px ; line-height: 19px&quot;&gt;&lt;div style=&quot;color: rgb(212 , 212 , 212) ; background-color: rgb(30 , 30 , 30) ; font-family: &amp;#34;consolas&amp;#34; , &amp;#34;courier new&amp;#34; , monospace ; line-height: 19px&quot;&gt;&lt;div&gt;&lt;br&gt;&lt;/div&gt;&lt;/div&gt;&lt;/div&gt;" style="rounded=1;whiteSpace=wrap;html=1;align=left;" parent="1" vertex="1">
          <mxGeometry x="30" y="897.35" width="350" height="437.65" as="geometry" />
        </mxCell>
        <mxCell id="3Hrfc6jVErraSraYbf2L-4" value="&lt;p style=&quot;margin: 0px ; margin-left: 8px&quot;&gt;&lt;u&gt;ESPNOW_message&lt;/u&gt;&lt;/p&gt;&lt;p style=&quot;margin: 0px ; margin-left: 8px&quot;&gt;&lt;u&gt;_Handling&lt;/u&gt;&lt;/p&gt;" style="verticalAlign=middle;align=center;overflow=fill;fontSize=12;fontFamily=Helvetica;html=1;rounded=1;fontStyle=1;strokeWidth=3;fillColor=#E6FFCC" parent="1" vertex="1">
          <mxGeometry x="672.51" y="655" width="130" height="50" as="geometry" />
        </mxCell>
        <mxCell id="3Hrfc6jVErraSraYbf2L-9" value="Y" style="text;html=1;align=center;verticalAlign=middle;resizable=0;points=[];autosize=1;" parent="1" vertex="1">
          <mxGeometry x="751.26" y="551.4000000000001" width="20" height="20" as="geometry" />
        </mxCell>
        <mxCell id="CzojHTj9ukS-7fSdfZxa-20" value="" style="edgeStyle=orthogonalEdgeStyle;rounded=0;orthogonalLoop=1;jettySize=auto;html=1;entryX=1;entryY=0.5;entryDx=0;entryDy=0;" edge="1" parent="1" source="3Hrfc6jVErraSraYbf2L-10" target="CzojHTj9ukS-7fSdfZxa-11">
          <mxGeometry relative="1" as="geometry">
            <mxPoint x="906.9050000000002" y="103.58571428571429" as="targetPoint" />
            <Array as="points">
              <mxPoint x="891.69" y="103.5" />
              <mxPoint x="891.69" y="609.5" />
            </Array>
          </mxGeometry>
        </mxCell>
        <mxCell id="3Hrfc6jVErraSraYbf2L-10" value="vtaskdelay(250ms)" style="rounded=1;whiteSpace=wrap;html=1;absoluteArcSize=1;arcSize=14;strokeWidth=2;" parent="1" vertex="1">
          <mxGeometry x="668.46" y="86.61999999999998" width="145.63" height="33.9" as="geometry" />
        </mxCell>
        <mxCell id="3Hrfc6jVErraSraYbf2L-15" value="N" style="text;html=1;align=center;verticalAlign=middle;resizable=0;points=[];autosize=1;" parent="1" vertex="1">
          <mxGeometry x="635" y="577.5" width="20" height="20" as="geometry" />
        </mxCell>
        <mxCell id="3Hrfc6jVErraSraYbf2L-19" value="" style="edgeStyle=orthogonalEdgeStyle;rounded=0;orthogonalLoop=1;jettySize=auto;html=1;entryX=0.5;entryY=1;entryDx=0;entryDy=0;" parent="1" source="CzojHTj9ukS-7fSdfZxa-12" target="3Hrfc6jVErraSraYbf2L-10" edge="1">
          <mxGeometry relative="1" as="geometry" />
        </mxCell>
        <mxCell id="3Hrfc6jVErraSraYbf2L-17" value="payload.messagetype ==&lt;br&gt;Command?" style="rhombus;whiteSpace=wrap;html=1;rounded=1;strokeWidth=2;arcSize=14;" parent="1" vertex="1">
          <mxGeometry x="646.05" y="445.78" width="197.48" height="67.5" as="geometry" />
        </mxCell>
        <mxCell id="CzojHTj9ukS-7fSdfZxa-1" value="&lt;div style=&quot;color: rgb(212 , 212 , 212) ; background-color: rgb(30 , 30 , 30) ; font-family: &amp;#34;consolas&amp;#34; , &amp;#34;courier new&amp;#34; , monospace ; font-size: 14px ; line-height: 19px&quot;&gt;&lt;div&gt;&lt;span style=&quot;color: #569cd6&quot;&gt;Role: Master/ Left_D/ Right_D&lt;/span&gt;&lt;/div&gt;&lt;div&gt;&lt;span style=&quot;color: #569cd6&quot;&gt;typedef&lt;/span&gt;&amp;nbsp;&lt;span style=&quot;color: #569cd6&quot;&gt;struct&lt;/span&gt;&amp;nbsp;payload_ext_t&amp;nbsp;{&lt;/div&gt;&lt;div&gt;&amp;nbsp;&amp;nbsp;payload_t&amp;nbsp;payload;&lt;/div&gt;&lt;div&gt;&amp;nbsp;&amp;nbsp;&lt;span style=&quot;color: #569cd6&quot;&gt;uint8_t&lt;/span&gt;&amp;nbsp;mac_from[&lt;span style=&quot;color: #b5cea8&quot;&gt;6&lt;/span&gt;];&lt;/div&gt;&lt;div&gt;}payload_ext_t;&lt;/div&gt;&lt;div&gt;&lt;div style=&quot;font-family: &amp;#34;consolas&amp;#34; , &amp;#34;courier new&amp;#34; , monospace ; line-height: 19px&quot;&gt;&lt;div&gt;&lt;span style=&quot;color: #569cd6&quot;&gt;typedef&lt;/span&gt;&amp;nbsp;&lt;span style=&quot;color: #569cd6&quot;&gt;struct&lt;/span&gt;&amp;nbsp;&amp;nbsp;payload_t{&lt;/div&gt;&lt;div&gt;&amp;nbsp;&amp;nbsp;&lt;span style=&quot;color: #569cd6&quot;&gt;char&lt;/span&gt;&amp;nbsp;message[&lt;span style=&quot;color: #569cd6&quot;&gt;ESP_NOW_send_data_size&lt;/span&gt;];&lt;/div&gt;&lt;div&gt;&amp;nbsp;&amp;nbsp;message_type_t&amp;nbsp;message_type;&lt;/div&gt;&lt;div&gt;&amp;nbsp;&amp;nbsp;&lt;span style=&quot;color: #569cd6&quot;&gt;uint16_t&lt;/span&gt;&amp;nbsp;message_pack_num;&amp;nbsp;&amp;nbsp;&amp;nbsp;&amp;nbsp;&amp;nbsp;&amp;nbsp;&amp;nbsp;&amp;nbsp;&lt;/div&gt;&lt;div&gt;&amp;nbsp;&amp;nbsp;&lt;span style=&quot;color: #569cd6&quot;&gt;uint16_t&lt;/span&gt;&amp;nbsp;message_pack_ID;&amp;nbsp;&amp;nbsp;&amp;nbsp;&amp;nbsp;&amp;nbsp;&amp;nbsp;&amp;nbsp;&amp;nbsp;&amp;nbsp;&lt;/div&gt;&lt;div&gt;}payload_t;&lt;/div&gt;&lt;div&gt;&lt;div style=&quot;font-family: &amp;#34;consolas&amp;#34; , &amp;#34;courier new&amp;#34; , monospace ; line-height: 19px&quot;&gt;&lt;div&gt;&lt;span style=&quot;color: #569cd6&quot;&gt;typedef&lt;/span&gt;&amp;nbsp;&lt;span style=&quot;color: #569cd6&quot;&gt;enum&lt;/span&gt;&amp;nbsp;message_type_t&amp;nbsp;{&lt;/div&gt;&lt;div&gt;&amp;nbsp;&amp;nbsp;&lt;span style=&quot;color: #b5cea8&quot;&gt;Borad_cast&lt;/span&gt;,&lt;/div&gt;&lt;div&gt;&amp;nbsp;&amp;nbsp;&lt;span style=&quot;color: #b5cea8&quot;&gt;Data_Message&lt;/span&gt;,&lt;/div&gt;&lt;div&gt;&amp;nbsp;&amp;nbsp;&lt;span style=&quot;color: #b5cea8&quot;&gt;Voice_Message&lt;/span&gt;,&lt;/div&gt;&lt;div&gt;&amp;nbsp; Command_Message,&lt;/div&gt;&lt;div&gt;&amp;nbsp;&amp;nbsp;&lt;span style=&quot;color: #b5cea8&quot;&gt;Ack_OK&lt;/span&gt;,&amp;nbsp;&amp;nbsp;&amp;nbsp;&amp;nbsp;&amp;nbsp;&amp;nbsp;&amp;nbsp;&amp;nbsp;&amp;nbsp;&amp;nbsp;&amp;nbsp;&lt;span style=&quot;color: #6a9955&quot;&gt;//æåè¯»ååï¼åéç¡®è®¤&lt;/span&gt;&lt;/div&gt;&lt;div&gt;&amp;nbsp;&amp;nbsp;&lt;span style=&quot;color: #b5cea8&quot;&gt;Ack_ERR&lt;/span&gt;&amp;nbsp;&amp;nbsp;&amp;nbsp;&amp;nbsp;&amp;nbsp;&amp;nbsp;&amp;nbsp;&amp;nbsp;&amp;nbsp;&amp;nbsp;&amp;nbsp;&lt;span style=&quot;color: #6a9955&quot;&gt;//è¡¨ç¤ºæ¶åæå¼å¸¸&lt;/span&gt;&lt;/div&gt;&lt;div&gt;}message_type_t;&lt;/div&gt;&lt;div&gt;&lt;br&gt;&lt;/div&gt;&lt;div&gt;message[0]:Left speed(+/- is direction)&lt;/div&gt;&lt;div&gt;message[1]:Right speed(+/- is direction)&lt;/div&gt;&lt;/div&gt;&lt;/div&gt;&lt;/div&gt;&lt;/div&gt;&lt;/div&gt;" style="text;html=1;strokeColor=none;fillColor=none;align=left;verticalAlign=middle;whiteSpace=wrap;rounded=0;" vertex="1" parent="1">
          <mxGeometry x="48.31" y="1106.17" width="291.69" height="20" as="geometry" />
        </mxCell>
        <mxCell id="CzojHTj9ukS-7fSdfZxa-2" value="if(PWM_setting &amp;lt; message[Role + 1]);PWM_setting ++;&amp;nbsp;" style="whiteSpace=wrap;html=1;rounded=1;strokeWidth=2;arcSize=14;align=left;" vertex="1" parent="1">
          <mxGeometry x="644.79" y="302.5" width="200" height="62.76" as="geometry" />
        </mxCell>
        <mxCell id="CzojHTj9ukS-7fSdfZxa-3" value="" style="edgeStyle=orthogonalEdgeStyle;rounded=0;orthogonalLoop=1;jettySize=auto;html=1;entryX=0.5;entryY=1;entryDx=0;entryDy=0;" edge="1" parent="1" source="3Hrfc6jVErraSraYbf2L-17" target="CzojHTj9ukS-7fSdfZxa-9">
          <mxGeometry relative="1" as="geometry">
            <mxPoint x="744.81" y="445.78683613530484" as="sourcePoint" />
            <mxPoint x="744.7950000000001" y="55.77999999999989" as="targetPoint" />
          </mxGeometry>
        </mxCell>
        <mxCell id="CzojHTj9ukS-7fSdfZxa-4" value="R(0)/W(1)" style="rounded=1;whiteSpace=wrap;html=1;" vertex="1" parent="1">
          <mxGeometry x="515.79" y="960" width="120" height="30" as="geometry" />
        </mxCell>
        <mxCell id="CzojHTj9ukS-7fSdfZxa-5" value="Left" style="rounded=1;whiteSpace=wrap;html=1;" vertex="1" parent="1">
          <mxGeometry x="640.8199999999999" y="960" width="120" height="30" as="geometry" />
        </mxCell>
        <mxCell id="CzojHTj9ukS-7fSdfZxa-6" value="Right" style="rounded=1;whiteSpace=wrap;html=1;" vertex="1" parent="1">
          <mxGeometry x="770" y="960" width="120" height="30" as="geometry" />
        </mxCell>
        <mxCell id="CzojHTj9ukS-7fSdfZxa-8" value="Command structure (bytes)" style="text;html=1;strokeColor=none;fillColor=none;align=center;verticalAlign=middle;whiteSpace=wrap;rounded=0;" vertex="1" parent="1">
          <mxGeometry x="516.79" y="920" width="284.21" height="20" as="geometry" />
        </mxCell>
        <mxCell id="CzojHTj9ukS-7fSdfZxa-9" value="Write?&lt;br&gt;message[0] ==0" style="rhombus;whiteSpace=wrap;html=1;rounded=1;strokeWidth=2;arcSize=14;" vertex="1" parent="1">
          <mxGeometry x="646.05" y="378.28" width="199.16" height="51.25" as="geometry" />
        </mxCell>
        <mxCell id="CzojHTj9ukS-7fSdfZxa-17" value="" style="edgeStyle=orthogonalEdgeStyle;rounded=0;orthogonalLoop=1;jettySize=auto;html=1;entryX=0;entryY=0.5;entryDx=0;entryDy=0;" edge="1" parent="1" source="CzojHTj9ukS-7fSdfZxa-11" target="CzojHTj9ukS-7fSdfZxa-12">
          <mxGeometry relative="1" as="geometry">
            <Array as="points">
              <mxPoint x="625.69" y="609.5" />
              <mxPoint x="625.69" y="185.5" />
            </Array>
          </mxGeometry>
        </mxCell>
        <mxCell id="CzojHTj9ukS-7fSdfZxa-11" value="New ESP_Now payload?" style="rhombus;whiteSpace=wrap;html=1;rounded=1;strokeWidth=2;arcSize=14;" vertex="1" parent="1">
          <mxGeometry x="642.54" y="585.32" width="197.48" height="47.5" as="geometry" />
        </mxCell>
        <mxCell id="CzojHTj9ukS-7fSdfZxa-12" value="else PWM_setting ==&amp;gt; 0;&amp;nbsp;&amp;nbsp;" style="whiteSpace=wrap;html=1;rounded=1;strokeWidth=2;arcSize=14;align=left;" vertex="1" parent="1">
          <mxGeometry x="645.6300000000001" y="163.02" width="200" height="44.48" as="geometry" />
        </mxCell>
        <mxCell id="CzojHTj9ukS-7fSdfZxa-18" value="Reply ESP_NOW ACK" style="whiteSpace=wrap;html=1;rounded=1;strokeWidth=2;arcSize=14;align=left;" vertex="1" parent="1">
          <mxGeometry x="645" y="242.5" width="200" height="43.75" as="geometry" />
        </mxCell>
        <mxCell id="CzojHTj9ukS-7fSdfZxa-22" value="" style="rounded=0;whiteSpace=wrap;html=1;" vertex="1" parent="1">
          <mxGeometry x="361.69" y="492.5" width="180" height="126.4" as="geometry" />
        </mxCell>
        <mxCell id="CzojHTj9ukS-7fSdfZxa-23" value="Set bit ESP_NOW_New_Payload" style="rounded=1;whiteSpace=wrap;html=1;" vertex="1" parent="1">
          <mxGeometry x="377.19" y="572.5" width="149" height="38.9" as="geometry" />
        </mxCell>
        <mxCell id="CzojHTj9ukS-7fSdfZxa-24" value="Queue out data" style="rounded=1;whiteSpace=wrap;html=1;" vertex="1" parent="1">
          <mxGeometry x="377.19" y="520" width="149" height="38.9" as="geometry" />
        </mxCell>
      </root>
    </mxGraphModel>
  </diagram>
</mxfile>
